<?xml version="1.0" encoding="utf-8"?>
<!-- Generator: Adobe Illustrator 26.2.1, SVG Export Plug-In . SVG Version: 6.00 Build 0)  -->
<svg version="1.1" id="Capa_1" xmlns="http://www.w3.org/2000/svg" xmlns:xlink="http://www.w3.org/1999/xlink" x="0px" y="0px"
	 viewBox="0 0 384.1 714.2" style="enable-background:new 0 0 384.1 714.2;" xml:space="preserve">
<style type="text/css">
	.st0{fill:#504A60;}
	.st1{fill:#578AAD;stroke:#1D71B8;stroke-miterlimit:10;}
</style>
<g id="a">
</g>
<g id="b">
	<g id="c">
		<path class="st0" d="M245.8,151c0,55.7-26.7,105.1-68.1,136.1c-2.5-0.1-5-0.1-7.5-0.1c-42,0-81.1,12.1-114.1,33l0,0
			c-19.8-2.3-38.6-7.9-55.7-16.4V0h153.6C208.6,28.3,245.8,85.3,245.8,151z"/>
	</g>
	<g id="d">
		<path class="st1" d="M383.6,500.3c0,117.8-95.5,213.3-213.4,213.3c-69.3,0-130.8-33-169.8-84.2V371.1
			C15.9,351,34.7,333.6,56.2,320l0,0c33-20.9,72.1-33,114.1-33c2.5,0,5,0,7.5,0.1C292.1,291.1,383.6,385,383.6,500.3L383.6,500.3z"
			/>
	</g>
</g>
</svg>
